<svg width="270" height="270" viewBox="0 0 270 270" fill="none" xmlns="http://www.w3.org/2000/svg">
<path fill-rule="evenodd" clip-rule="evenodd" d="M135 270C209.558 270 270 209.558 270 135C270 60.4416 209.558 0 135 0C60.4417 0 0 60.4416 0 135C0 209.558 60.4417 270 135 270ZM68 49.5C61.0964 49.5 55.5 55.0964 55.5 62C55.5 68.9036 61.0964 74.5 68 74.5H162.582C166.869 75.4293 173.237 77.9268 178.468 82.4286C183.743 86.968 187.824 93.4318 187.824 103.188C187.824 112.655 183.655 118.896 178.207 123.322C172.82 127.698 166.422 130.014 162.633 130.812H119.794C112.891 130.812 107.294 136.408 107.294 143.312C107.294 150.215 112.891 155.812 119.794 155.812H156.958L195.484 215.758C199.217 221.566 206.95 223.248 212.758 219.516C218.566 215.783 220.248 208.05 216.516 202.242L182.865 149.882C186.585 148.004 190.38 145.643 193.972 142.725C204.104 134.493 212.824 121.559 212.824 103.188C212.824 85.1074 204.725 72.0422 194.775 63.4794C185.184 55.2255 173.866 51.0737 165.938 49.687C165.227 49.5626 164.506 49.5 163.784 49.5H68Z" fill="white"/>
</svg>
